<svg width="168" height="55" fill="none" xmlns="http://www.w3.org/2000/svg"><g filter="url(#a)"><path d="M1.002 8.524H4.72v30.493H1.002V8.524Z" fill="#fff"/><path d="M38.374 39.332c-2.052 0-3.804-.378-5.257-1.133a7.838 7.838 0 0 1-3.333-3.334c-.755-1.468-1.133-3.23-1.133-5.285v-2.454c0-2.153.364-3.992 1.09-5.516.74-1.523 1.81-2.684 3.205-3.48 1.396-.798 3.077-1.196 5.043-1.196 1.852 0 3.433.426 4.744 1.279 1.31.839 2.307 2.062 2.99 3.67.699 1.608 1.048 3.544 1.048 5.81v1.95l-14.615.02.004-3.103h11.107v-.105c-.057-1.957-.549-3.474-1.475-4.55-.911-1.091-2.18-1.637-3.803-1.637-1.852 0-3.29.58-4.316 1.74-1.012 1.147-1.517 2.776-1.517 4.887v2.769c0 1.985.541 3.523 1.624 4.614 1.082 1.076 2.614 1.614 4.594 1.614.954 0 1.901-.188 2.841-.566a8.015 8.015 0 0 0 2.5-1.636l2.479 2.391a11.983 11.983 0 0 1-3.675 2.412c-1.368.56-2.75.839-4.145.839Zm27.221-22.084h3.91l-8.546 21.77h-2.864l-8.546-21.77h3.91l6.068 16.694 6.068-16.694Z" fill="#026FD4"/><path d="M84.377 39.332c-2.15 0-4.045-.468-5.683-1.405-1.624-.937-2.885-2.265-3.782-3.985-.898-1.72-1.347-3.712-1.347-5.977v-8.368c0-2.265.45-4.257 1.347-5.977.897-1.72 2.158-3.048 3.781-3.985 1.639-.95 3.533-1.426 5.684-1.426 1.78 0 3.419.364 4.915 1.09a10.09 10.09 0 0 1 3.739 3.105c1.011 1.342 1.695 2.894 2.051 4.655h-3.76a7.377 7.377 0 0 0-1.539-2.789 7.246 7.246 0 0 0-2.478-1.908 6.736 6.736 0 0 0-2.928-.671c-1.396 0-2.628.328-3.696.985-1.055.658-1.873 1.58-2.458 2.769-.584 1.188-.876 2.572-.876 4.152v8.368c0 1.566.292 2.943.876 4.131.585 1.189 1.403 2.112 2.458 2.769 1.068.643 2.3.965 3.696.965a7.16 7.16 0 0 0 2.949-.63 6.952 6.952 0 0 0 2.457-1.845c.712-.811 1.225-1.769 1.538-2.873h3.761c-.356 1.761-1.04 3.313-2.051 4.656a10.556 10.556 0 0 1-3.76 3.103c-1.496.727-3.127 1.09-4.894 1.09Z" fill="#fff"/><path d="M109.377 39.332c-1.923 0-3.569-.37-4.936-1.112-1.368-.74-2.415-1.817-3.141-3.23-.712-1.425-1.068-3.138-1.068-5.138v-3.544c0-1.971.356-3.656 1.068-5.054.726-1.412 1.773-2.482 3.141-3.209 1.367-.74 3.013-1.111 4.936-1.111s3.568.37 4.936 1.111c1.367.727 2.407 1.797 3.119 3.209.727 1.398 1.09 3.083 1.09 5.054v3.607c0 1.986-.363 3.684-1.09 5.097a7.369 7.369 0 0 1-3.119 3.208c-1.368.741-3.013 1.112-4.936 1.112Zm0-3.44c1.723 0 3.055-.524 3.995-1.572.955-1.049 1.432-2.517 1.432-4.405v-3.607c0-1.887-.477-3.348-1.432-4.383-.94-1.035-2.272-1.552-3.995-1.552-1.724 0-3.063.517-4.017 1.552-.94 1.035-1.41 2.496-1.41 4.383v3.607c0 1.888.47 3.356 1.41 4.405.954 1.048 2.293 1.572 4.017 1.572Zm15.341-18.644h3.718v21.769h-3.718V17.248Zm18.675 0h3.718v30.619h-3.718V17.248Z" fill="#026FD4"/><path d="M1 44.241h142.393v3.627h3.718H1v-3.627Z" fill="#026FD4"/><path fill-rule="evenodd" clip-rule="evenodd" d="m71.98 1-6.385 16.248h3.91L75.89 1h-3.908Z" fill="#026FD4"/><path d="M10.98 35.578H4.72v3.44h6.111c2.564 0 4.73-.413 6.496-1.238 1.766-.839 3.098-2.07 3.995-3.691.898-1.636 1.347-3.635 1.347-5.998v-8.64c0-2.378-.449-4.377-1.346-5.999-.898-1.636-2.23-2.866-3.996-3.69-1.752-.826-3.91-1.238-6.474-1.238H4.72v3.44h6.26c2.593 0 4.56.621 5.898 1.866 1.353 1.244 2.03 3.062 2.03 5.453v8.976c0 2.39-.677 4.208-2.03 5.452-1.339 1.245-3.305 1.867-5.897 1.867Z" fill="#fff"/><path d="M135.765 20.73c.641.237 1.168.587 1.581 1.048l2.415-3.146a6.028 6.028 0 0 0-2.158-1.258c-.812-.293-1.724-.44-2.735-.44-1.439 0-2.756.363-3.953 1.09a8.064 8.064 0 0 0-2.479 2.32v4.895c0-1.524.449-2.713 1.347-3.566.897-.866 2.15-1.3 3.76-1.3.841 0 1.581.119 2.222.357Zm13.504 17.68c1.126.614 2.479.922 4.06.922 1.61 0 2.992-.343 4.145-1.028 1.154-.699 2.03-1.706 2.629-3.02.598-1.314.897-2.894.897-4.74v-4.74c0-1.873-.292-3.473-.876-4.802-.584-1.328-1.439-2.335-2.564-3.02-1.111-.699-2.45-1.048-4.017-1.048-1.51 0-2.856.328-4.039.985-.941.53-1.738 1.282-2.393 2.256v4.938c0-.923.2-1.762.599-2.517a4.374 4.374 0 0 1 1.73-1.782c.755-.434 1.646-.65 2.671-.65 1.653 0 2.928.496 3.825 1.488.897.98 1.346 2.37 1.346 4.174v4.719c0 1.761-.449 3.131-1.346 4.11-.897.965-2.172 1.447-3.825 1.447-1.025 0-1.916-.223-2.671-.67a4.477 4.477 0 0 1-1.73-1.826c-.399-.769-.599-1.621-.599-2.558v5.174a5.415 5.415 0 0 0 2.158 2.187Z" fill="#026FD4"/></g><defs><filter id="a" x="0" y="0" width="168" height="54.869" filterUnits="userSpaceOnUse" color-interpolation-filters="sRGB"><feFlood flood-opacity="0" result="BackgroundImageFix"/><feColorMatrix in="SourceAlpha" values="0 0 0 0 0 0 0 0 0 0 0 0 0 0 0 0 0 0 127 0" result="hardAlpha"/><feOffset dx="3" dy="3"/><feGaussianBlur stdDeviation="2"/><feComposite in2="hardAlpha" operator="out"/><feColorMatrix values="0 0 0 0 0 0 0 0 0 0 0 0 0 0 0 0 0 0 0.25 0"/><feBlend in2="BackgroundImageFix" result="effect1_dropShadow_450_95"/><feBlend in="SourceGraphic" in2="effect1_dropShadow_450_95" result="shape"/></filter></defs></svg>