<svg width="400" height="400" fill="none" xmlns="http://www.w3.org/2000/svg"><path d="M390.4 198.4c0 106.039-85.961 192-192 192s-192-85.961-192-192 85.961-192 192-192 192 85.961 192 192Z" fill="#026FD4"/><path fill-rule="evenodd" clip-rule="evenodd" d="M0 200C0 89.543 89.543 0 200 0s200 89.543 200 200-89.543 200-200 200S0 310.457 0 200ZM136.962 67.908c15.424-29.852 34.936-47.463 55.038-51.17v62.788c-9.131 2.635-16.397 9.665-19.359 18.653a340.118 340.118 0 0 1-30.424-3.658c-.838-6.988-4.49-13.11-9.791-17.2a192.757 192.757 0 0 1 4.536-9.413Zm35.089 46.271a356.39 356.39 0 0 1-32.971-3.961c-4.329 7.627-12.461 12.812-21.818 12.978-3.582 15.431-6.128 32.027-7.441 49.445 8.987 2.962 16.019 10.229 18.653 19.359h30.695c3.225-16.559 16.272-29.606 32.831-32.832v-24.294c-9.812-2.831-17.471-10.739-19.949-20.695ZM208 134.874v24.294c16.559 3.226 29.606 16.273 32.831 32.832h30.695c2.634-9.13 9.665-16.397 18.653-19.359-1.313-17.418-3.859-34.014-7.441-49.445-9.357-.166-17.489-5.351-21.818-12.978a356.39 356.39 0 0 1-32.971 3.961c-2.478 9.956-10.137 17.864-19.949 20.695Zm19.359-36.695a340.118 340.118 0 0 0 30.424-3.658c.838-6.988 4.49-13.11 9.791-17.2a192.757 192.757 0 0 0-4.536-9.413C247.614 38.056 228.102 20.445 208 16.738v62.788c9.131 2.635 16.397 9.665 19.359 18.653ZM117.278 72.004a209.254 209.254 0 0 1 5.47-11.44c7.581-14.674 16.591-27.52 26.792-37.56-31.192 8.877-59.006 25.775-81.068 48.324 8.342 4.273 17.505 8.153 27.369 11.57C100.472 76.306 108.133 72 116.8 72c.16 0 .319.002.478.004Zm-26.07 26.221c-12.227-4.201-23.54-9.1-33.735-14.604C33.124 113.405 17.926 150.96 16.171 192h56.955c2.83-9.812 10.739-17.471 20.695-19.949 1.387-18.81 4.155-36.81 8.12-53.602-6.344-4.53-10.534-11.883-10.734-20.224ZM128.474 208c-2.634 9.13-9.666 16.397-18.653 19.359 1.313 17.419 3.859 34.014 7.441 49.445 9.257.164 17.316 5.241 21.678 12.735a358.003 358.003 0 0 1 33.14-3.834c2.509-9.902 10.146-17.759 19.92-20.579v-24.294c-16.559-3.226-29.606-16.273-32.831-32.832h-30.695Zm-34.653 19.949c1.387 18.809 4.155 36.81 8.12 53.602-6.204 4.43-10.348 11.56-10.715 19.674-12.4 4.171-23.883 9.055-34.239 14.558C32.922 286.095 17.915 248.765 16.171 208h56.955c2.83 9.812 10.739 17.471 20.695 19.949ZM67.942 328.128c8.42-4.243 17.658-8.09 27.593-11.469C100.131 323.499 107.94 328 116.8 328c.16 0 .319-.002.478-.004a209.466 209.466 0 0 0 5.47 11.441c7.581 14.673 16.591 27.518 26.792 37.558-31.442-8.947-59.452-26.046-81.598-48.867Zm69.02 3.964a192.677 192.677 0 0 1-4.536-9.412c5.368-4.143 9.046-10.37 9.821-17.469a341.5 341.5 0 0 1 30.357-3.504c2.937 9.041 10.227 16.121 19.396 18.767v62.788c-20.102-3.707-39.614-21.318-55.038-51.17ZM208 383.262v-62.788c9.09-2.623 16.332-9.603 19.319-18.532a338.436 338.436 0 0 1 30.499 3.814c.9 6.873 4.526 12.887 9.756 16.924a192.677 192.677 0 0 1-4.536 9.412c-15.424 29.852-34.936 47.463-55.038 51.17Zm74.722-55.266a209.466 209.466 0 0 1-5.47 11.441c-7.581 14.673-16.591 27.518-26.793 37.558 30.94-8.803 58.555-25.5 80.53-47.775-8.264-4.302-17.355-8.216-27.151-11.67-4.66 6.337-12.169 10.45-20.638 10.45-.16 0-.319-.002-.478-.004Zm26.078-25.663c12.052 4.23 23.196 9.143 33.233 14.648 24.637-29.879 40.029-67.665 41.796-108.981h-56.955c-2.831 9.812-10.739 17.471-20.695 19.949-1.387 18.81-4.155 36.81-8.12 53.602 6.485 4.631 10.719 12.211 10.741 20.782Zm-26.062-25.529c3.582-15.431 6.128-32.027 7.441-49.445-8.988-2.962-16.019-10.229-18.653-19.359h-30.695c-3.225 16.559-16.272 29.606-32.831 32.832v24.294c9.852 2.843 17.534 10.805 19.979 20.82a354.136 354.136 0 0 1 32.802 4.086c4.291-7.764 12.498-13.061 21.957-13.228Zm-5.486-216.24a209.254 209.254 0 0 1 5.47 11.44c.159-.002.318-.004.478-.004 8.667 0 16.328 4.307 20.96 10.897 9.863-3.416 19.026-7.296 27.368-11.569-22.062-22.549-49.876-39.448-81.069-48.323 10.202 10.04 19.212 22.885 26.793 37.558Zm31.541 37.661c-.2 8.341-4.39 15.694-10.734 20.224 3.965 16.792 6.733 34.792 8.12 53.602 9.956 2.478 17.864 10.137 20.695 19.949h56.955c-1.755-41.039-16.953-78.596-41.302-108.38-10.195 5.504-21.508 10.404-33.734 14.605Z" fill="#fff"/></svg>