<svg width="233" height="62" fill="none" xmlns="http://www.w3.org/2000/svg"><path d="M60.512 30.752c0 16.436-13.324 29.76-29.76 29.76S.992 47.188.992 30.752 14.316.992 30.752.992s29.76 13.324 29.76 29.76Z" fill="#026FD4"/><path fill-rule="evenodd" clip-rule="evenodd" d="M0 31C0 13.88 13.88 0 31 0c17.12 0 31 13.88 31 31 0 17.12-13.88 31-31 31C13.88 62 0 48.12 0 31Zm21.23-20.474c2.39-4.627 5.414-7.357 8.53-7.932v9.732a4.474 4.474 0 0 0-3 2.892 52.756 52.756 0 0 1-4.716-.567 3.964 3.964 0 0 0-1.518-2.666c.226-.503.46-.99.703-1.46Zm5.438 7.172a55.219 55.219 0 0 1-5.11-.614 3.967 3.967 0 0 1-3.382 2.011 50.896 50.896 0 0 0-1.154 7.664 4.474 4.474 0 0 1 2.892 3.001h4.757a6.455 6.455 0 0 1 5.089-5.089v-3.765a4.472 4.472 0 0 1-3.092-3.208Zm5.572 3.207v3.766a6.455 6.455 0 0 1 5.089 5.089h4.758a4.474 4.474 0 0 1 2.89-3 50.896 50.896 0 0 0-1.153-7.665 3.967 3.967 0 0 1-3.381-2.011c-1.65.278-3.358.484-5.11.614a4.472 4.472 0 0 1-3.093 3.207Zm3-5.687a52.756 52.756 0 0 0 4.716-.567 3.964 3.964 0 0 1 1.518-2.666c-.226-.503-.46-.99-.703-1.46-2.39-4.626-5.415-7.356-8.531-7.93v9.731a4.474 4.474 0 0 1 3 2.892ZM18.179 11.16c.27-.612.553-1.203.848-1.774 1.175-2.274 2.572-4.265 4.153-5.821a28.503 28.503 0 0 0-12.566 7.49 33.043 33.043 0 0 0 4.242 1.793 3.963 3.963 0 0 1 3.323-1.688Zm-4.04 4.064a34.901 34.901 0 0 1-5.23-2.264 28.391 28.391 0 0 0-6.403 16.8h8.829a4.472 4.472 0 0 1 3.207-3.092 53.33 53.33 0 0 1 1.259-8.308 3.963 3.963 0 0 1-1.664-3.135Zm5.775 17.015a4.474 4.474 0 0 1-2.89 3 50.76 50.76 0 0 0 1.153 7.665 3.966 3.966 0 0 1 3.36 1.974 55.42 55.42 0 0 1 5.136-.595 4.472 4.472 0 0 1 3.088-3.19V37.33a6.455 6.455 0 0 1-5.089-5.089h-4.758Zm-5.37 3.092A53.33 53.33 0 0 0 15.8 43.64a3.964 3.964 0 0 0-1.66 3.05 35.368 35.368 0 0 0-5.308 2.256A28.39 28.39 0 0 1 2.506 32.24h8.829a4.472 4.472 0 0 0 3.207 3.092ZM10.53 50.86a33.449 33.449 0 0 1 4.277-1.778 3.964 3.964 0 0 0 3.37 1.757c.27.612.553 1.203.848 1.774 1.175 2.274 2.572 4.265 4.153 5.821A28.507 28.507 0 0 1 10.53 50.86Zm10.698.614c-.242-.47-.477-.956-.703-1.459a3.964 3.964 0 0 0 1.522-2.707 53.005 53.005 0 0 1 4.706-.544 4.474 4.474 0 0 0 3.006 2.91v9.732c-3.116-.575-6.14-3.305-8.53-7.932Zm11.011 7.932v-9.733a4.474 4.474 0 0 0 2.994-2.872c1.628.13 3.207.33 4.728.591a3.965 3.965 0 0 0 1.512 2.623c-.226.503-.46.99-.703 1.46-2.39 4.626-5.415 7.356-8.531 7.93Zm11.582-8.567c-.27.612-.553 1.203-.848 1.774-1.175 2.274-2.572 4.265-4.153 5.821a28.502 28.502 0 0 0 12.482-7.405 32.614 32.614 0 0 0-4.208-1.809 3.962 3.962 0 0 1-3.273 1.62Zm4.042-3.977a34.443 34.443 0 0 1 5.151 2.27 28.392 28.392 0 0 0 6.478-16.892h-8.828a4.472 4.472 0 0 1-3.207 3.092 53.33 53.33 0 0 1-1.259 8.308 3.963 3.963 0 0 1 1.665 3.222Zm-4.04-3.957a50.89 50.89 0 0 0 1.154-7.664 4.474 4.474 0 0 1-2.892-3.001H37.33a6.455 6.455 0 0 1-5.089 5.089v3.765a4.472 4.472 0 0 1 3.097 3.228c1.744.136 3.444.35 5.084.633a3.967 3.967 0 0 1 3.403-2.05Zm-.85-33.518c.295.57.578 1.162.848 1.774l.074-.001c1.343 0 2.53.668 3.249 1.69a33.196 33.196 0 0 0 4.242-1.794 28.503 28.503 0 0 0-12.566-7.49c1.581 1.556 2.978 3.547 4.153 5.821Zm4.889 5.838a3.963 3.963 0 0 1-1.664 3.135 53.33 53.33 0 0 1 1.259 8.308 4.472 4.472 0 0 1 3.208 3.092h8.828a28.391 28.391 0 0 0-6.402-16.799 34.892 34.892 0 0 1-5.23 2.264Z" fill="#fff"/><path d="M82.002 16.224h3.509V45.5h-3.509V16.224Z" fill="#fff"/><path d="M117.271 45.804c-1.936 0-3.589-.363-4.96-1.088a7.458 7.458 0 0 1-3.146-3.201c-.713-1.41-1.069-3.101-1.069-5.075v-2.355c0-2.068.343-3.833 1.029-5.296.699-1.463 1.707-2.578 3.024-3.343 1.318-.765 2.904-1.148 4.759-1.148 1.748 0 3.24.41 4.477 1.229 1.237.805 2.178 1.98 2.823 3.523.659 1.544.988 3.403.988 5.578v1.873l-13.793.02.004-2.98h10.482v-.1c-.054-1.88-.517-3.337-1.391-4.37-.861-1.047-2.057-1.571-3.59-1.571-1.747 0-3.105.557-4.073 1.671-.955 1.101-1.432 2.665-1.432 4.692v2.658c0 1.906.511 3.383 1.533 4.43 1.021 1.033 2.467 1.55 4.335 1.55.901 0 1.795-.18 2.682-.543a7.553 7.553 0 0 0 2.36-1.571l2.339 2.295a11.294 11.294 0 0 1-3.469 2.316c-1.29.537-2.594.806-3.912.806ZM142.962 24.6h3.69l-8.066 20.901h-2.702l-8.066-20.9h3.69l5.727 16.028 5.727-16.029Z" fill="#0084FF"/><path d="M160.687 45.804c-2.03 0-3.818-.45-5.364-1.35-1.532-.899-2.722-2.174-3.569-3.825-.847-1.651-1.27-3.564-1.27-5.74v-8.033c0-2.175.423-4.088 1.27-5.74.847-1.65 2.037-2.925 3.569-3.825 1.546-.913 3.334-1.37 5.364-1.37 1.681 0 3.227.35 4.638 1.048a9.56 9.56 0 0 1 3.529 2.98c.955 1.289 1.6 2.779 1.936 4.47h-3.549a7.124 7.124 0 0 0-1.452-2.678 6.852 6.852 0 0 0-2.339-1.832 6.266 6.266 0 0 0-2.763-.645c-1.317 0-2.48.316-3.488.947-.995.63-1.768 1.517-2.319 2.658-.552 1.14-.827 2.47-.827 3.987v8.034c0 1.503.275 2.826.827 3.967.551 1.14 1.324 2.027 2.319 2.658 1.008.617 2.171.926 3.488.926a6.67 6.67 0 0 0 2.783-.604 6.576 6.576 0 0 0 2.319-1.772c.672-.779 1.156-1.698 1.452-2.759h3.549c-.336 1.692-.981 3.182-1.936 4.47a9.992 9.992 0 0 1-3.549 2.98c-1.412.699-2.951 1.048-4.618 1.048Z" fill="#fff"/><path d="M184.281 45.804c-1.815 0-3.368-.356-4.659-1.068-1.29-.711-2.278-1.745-2.964-3.1-.672-1.37-1.008-3.014-1.008-4.934V33.3c0-1.893.336-3.51 1.008-4.853.686-1.355 1.674-2.382 2.964-3.08 1.291-.712 2.844-1.068 4.659-1.068 1.814 0 3.367.356 4.658 1.068 1.29.698 2.272 1.725 2.944 3.08.686 1.343 1.028 2.96 1.028 4.853v3.464c0 1.906-.342 3.537-1.028 4.893-.672 1.342-1.654 2.369-2.944 3.08-1.291.712-2.844 1.068-4.658 1.068Zm0-3.303c1.626 0 2.883-.503 3.771-1.51.9-1.007 1.351-2.416 1.351-4.228v-3.464c0-1.812-.451-3.215-1.351-4.208-.888-.994-2.145-1.49-3.771-1.49-1.627 0-2.891.496-3.791 1.49-.888.993-1.331 2.396-1.331 4.208v3.464c0 1.812.443 3.221 1.331 4.228.9 1.007 2.164 1.51 3.791 1.51ZM198.759 24.6h3.509v20.902h-3.509V24.6Zm17.625 0h3.509v29.398h-3.509V24.6Z" fill="#0084FF"/><path d="M82 50.517h134.384v3.482l3.509.001H82v-3.483Z" fill="#0084FF"/><path fill-rule="evenodd" clip-rule="evenodd" d="m148.988 9-6.026 15.6h3.69L152.677 9h-3.689Z" fill="#0084FF"/><path d="M91.42 42.2h-5.91v3.3h5.768c2.42 0 4.463-.395 6.13-1.188 1.668-.805 2.924-1.986 3.771-3.543.847-1.571 1.271-3.49 1.271-5.76v-8.295c0-2.282-.424-4.202-1.271-5.76-.847-1.57-2.103-2.751-3.77-3.543-1.654-.792-3.69-1.188-6.11-1.188H85.51v3.302h5.908c2.447 0 4.302.598 5.566 1.792 1.277 1.195 1.916 2.94 1.916 5.236v8.618c0 2.295-.639 4.04-1.916 5.235-1.264 1.195-3.119 1.792-5.566 1.792Z" fill="#fff"/><path d="M209.185 27.943a3.674 3.674 0 0 1 1.492 1.007l2.279-3.02a5.66 5.66 0 0 0-2.037-1.209c-.766-.282-1.627-.423-2.581-.423a6.96 6.96 0 0 0-3.731 1.048 7.657 7.657 0 0 0-2.339 2.226v4.7c0-1.463.424-2.604 1.27-3.423.847-.832 2.03-1.248 3.55-1.248.793 0 1.492.114 2.097.342Zm12.744 16.975c1.062.59 2.339.886 3.832.886 1.519 0 2.823-.33 3.912-.987 1.089-.671 1.915-1.638 2.48-2.9.565-1.261.847-2.778.847-4.55v-4.551c0-1.799-.276-3.336-.827-4.611-.551-1.275-1.358-2.242-2.42-2.9-1.048-.671-2.312-1.007-3.791-1.007-1.425 0-2.695.316-3.811.947-.888.508-1.641 1.23-2.258 2.165v4.741c0-.886.188-1.691.564-2.416a4.176 4.176 0 0 1 1.634-1.711c.712-.417 1.552-.625 2.52-.625 1.56 0 2.763.477 3.61 1.43.847.94 1.27 2.275 1.27 4.007v4.53c0 1.692-.423 3.008-1.27 3.947-.847.926-2.05 1.39-3.61 1.39-.968 0-1.808-.215-2.52-.645a4.278 4.278 0 0 1-1.634-1.752c-.376-.738-.564-1.557-.564-2.456v4.968a5.154 5.154 0 0 0 2.036 2.1Z" fill="#0084FF"/></svg>