<svg width="40" height="58" fill="none" xmlns="http://www.w3.org/2000/svg"><g filter="url(#a)"><path d="M12.604 1.39a4.51 4.51 0 0 1 6.512 0l19.535 20.123A4.808 4.808 0 0 1 39.998 25a4.807 4.807 0 0 1-1.347 3.487L19.116 48.61a4.51 4.51 0 0 1-6.511 0l-3.256-3.354c-1.799-1.853-1.799-4.856 0-6.708L22.5 25 9.35 11.451c-1.8-1.851-1.8-4.855-.001-6.708l3.255-3.354Z" fill="#026FD4"/></g><defs><filter id="a" x="0" y="0" width="40" height="58" filterUnits="userSpaceOnUse" color-interpolation-filters="sRGB"><feFlood flood-opacity="0" result="BackgroundImageFix"/><feColorMatrix in="SourceAlpha" values="0 0 0 0 0 0 0 0 0 0 0 0 0 0 0 0 0 0 127 0" result="hardAlpha"/><feOffset dx="-4" dy="4"/><feGaussianBlur stdDeviation="2"/><feComposite in2="hardAlpha" operator="out"/><feColorMatrix values="0 0 0 0 0 0 0 0 0 0 0 0 0 0 0 0 0 0 0.25 0"/><feBlend in2="BackgroundImageFix" result="effect1_dropShadow_571_1054"/><feBlend in="SourceGraphic" in2="effect1_dropShadow_571_1054" result="shape"/></filter></defs></svg>