<svg width="40" height="58" fill="none" xmlns="http://www.w3.org/2000/svg"><g filter="url(#a)"><path d="M27.395 1.39a4.51 4.51 0 0 0-6.511 0L1.349 21.512A4.807 4.807 0 0 0 .002 25a4.807 4.807 0 0 0 1.347 3.487L20.884 48.61a4.51 4.51 0 0 0 6.511 0l3.256-3.354c1.799-1.853 1.799-4.856 0-6.708L17.5 25l13.15-13.549c1.799-1.852 1.799-4.855 0-6.708L27.395 1.39Z" fill="#026FD4"/></g><defs><filter id="a" x="0" y="0" width="40" height="58" filterUnits="userSpaceOnUse" color-interpolation-filters="sRGB"><feFlood flood-opacity="0" result="BackgroundImageFix"/><feColorMatrix in="SourceAlpha" values="0 0 0 0 0 0 0 0 0 0 0 0 0 0 0 0 0 0 127 0" result="hardAlpha"/><feOffset dx="4" dy="4"/><feGaussianBlur stdDeviation="2"/><feComposite in2="hardAlpha" operator="out"/><feColorMatrix values="0 0 0 0 0 0 0 0 0 0 0 0 0 0 0 0 0 0 0.25 0"/><feBlend in2="BackgroundImageFix" result="effect1_dropShadow_571_1053"/><feBlend in="SourceGraphic" in2="effect1_dropShadow_571_1053" result="shape"/></filter></defs></svg>