<svg width="1198" height="652" fill="none" xmlns="http://www.w3.org/2000/svg"><path d="M479.003 302.398h5.554v46.193h-5.554v-46.193Z" fill="#fff"/><path d="M534.827 349.068c-3.064 0-5.682-.572-7.852-1.716-2.17-1.165-3.83-2.848-4.979-5.051-1.128-2.224-1.692-4.893-1.692-8.006v-3.717c0-3.262.543-6.047 1.628-8.356 1.107-2.308 2.703-4.066 4.788-5.274 2.085-1.207 4.596-1.811 7.532-1.811 2.766 0 5.128.646 7.086 1.938 1.957 1.271 3.447 3.125 4.468 5.56 1.043 2.436 1.564 5.369 1.564 8.801v2.954l-21.831.032.006-4.702h16.591v-.159c-.085-2.965-.819-5.263-2.202-6.894-1.362-1.652-3.256-2.478-5.682-2.478-2.766 0-4.915.879-6.447 2.637-1.511 1.737-2.266 4.204-2.266 7.402v4.194c0 3.007.808 5.337 2.426 6.989 1.617 1.631 3.904 2.447 6.862 2.447 1.425 0 2.84-.286 4.245-.858a11.961 11.961 0 0 0 3.734-2.478l3.702 3.622a17.882 17.882 0 0 1-5.489 3.653c-2.043.847-4.107 1.271-6.192 1.271Z" fill="url(#a)"/><path d="M575.489 315.614h5.841l-12.767 32.977h-4.277l-12.766-32.977h5.84l9.065 25.289 9.064-25.289Z" fill="url(#b)"/><path d="M603.545 349.068c-3.213 0-6.043-.71-8.49-2.129-2.426-1.419-4.309-3.431-5.65-6.036-1.34-2.605-2.01-5.623-2.01-9.054v-12.677c0-3.431.67-6.449 2.01-9.054 1.341-2.605 3.224-4.617 5.65-6.036 2.447-1.441 5.277-2.161 8.49-2.161 2.659 0 5.106.551 7.341 1.652a15.128 15.128 0 0 1 5.585 4.702c1.511 2.033 2.532 4.384 3.064 7.053h-5.617a11.215 11.215 0 0 0-2.298-4.225 10.831 10.831 0 0 0-3.703-2.891 9.941 9.941 0 0 0-4.372-1.017c-2.086 0-3.926.498-5.522 1.493-1.575.996-2.798 2.394-3.671 4.194-.872 1.8-1.308 3.897-1.308 6.29v12.677c0 2.372.436 4.458 1.308 6.258.873 1.801 2.096 3.198 3.671 4.194 1.596.974 3.436 1.461 5.522 1.461 1.532 0 3-.317 4.404-.953 1.405-.635 2.628-1.567 3.671-2.796 1.064-1.228 1.83-2.679 2.298-4.352h5.617c-.532 2.669-1.553 5.02-3.064 7.053a15.826 15.826 0 0 1-5.617 4.702c-2.234 1.101-4.671 1.652-7.309 1.652Z" fill="#fff"/><path d="M640.888 349.068c-2.873 0-5.33-.561-7.373-1.684-2.043-1.122-3.607-2.753-4.692-4.893-1.064-2.16-1.596-4.754-1.596-7.783v-5.369c0-2.987.532-5.539 1.596-7.657 1.085-2.139 2.649-3.759 4.692-4.861 2.043-1.122 4.5-1.684 7.373-1.684 2.872 0 5.33.562 7.373 1.684 2.042 1.102 3.596 2.722 4.66 4.861 1.085 2.118 1.627 4.67 1.627 7.657v5.464c0 3.008-.542 5.581-1.627 7.72-1.064 2.118-2.618 3.739-4.66 4.861-2.043 1.123-4.501 1.684-7.373 1.684Zm0-5.21c2.575 0 4.564-.795 5.968-2.383 1.426-1.589 2.139-3.813 2.139-6.672v-5.464c0-2.86-.713-5.073-2.139-6.64-1.404-1.568-3.393-2.351-5.968-2.351s-4.575.783-6.001 2.351c-1.404 1.567-2.106 3.78-2.106 6.64v5.464c0 2.859.702 5.083 2.106 6.672 1.426 1.588 3.426 2.383 6.001 2.383Z" fill="url(#c)"/><path d="M663.804 315.614h5.554v32.977h-5.554v-32.977Z" fill="url(#d)"/><path d="M691.7 315.614h5.554v46.384H691.7v-46.384Z" fill="url(#e)"/><path d="M479 356.505h212.7v5.493l5.554.002H479v-5.495Z" fill="url(#f)"/><path fill-rule="evenodd" clip-rule="evenodd" d="m585.028 291-9.539 24.614h5.841L590.866 291h-5.838Z" fill="url(#g)"/><path d="M493.909 343.381h-9.352v5.21h9.128c3.83 0 7.065-.624 9.703-1.874 2.639-1.271 4.628-3.135 5.969-5.592 1.34-2.478 2.011-5.506 2.011-9.086V318.95c0-3.601-.671-6.629-2.011-9.086-1.341-2.478-3.33-4.342-5.969-5.592-2.617-1.249-5.841-1.874-9.671-1.874h-9.16v5.21h9.352c3.872 0 6.809.943 8.809 2.828 2.021 1.885 3.032 4.638 3.032 8.26v13.597c0 3.622-1.011 6.375-3.032 8.261-2 1.885-4.937 2.827-8.809 2.827Z" fill="#fff"/><path d="M680.306 320.888c.957.36 1.745.889 2.362 1.588l3.606-4.765a8.96 8.96 0 0 0-3.223-1.906c-1.213-.445-2.575-.668-4.086-.668-2.149 0-4.117.551-5.905 1.653-1.451.877-2.685 2.048-3.702 3.512v7.416c0-2.308.67-4.108 2.011-5.4 1.34-1.314 3.213-1.97 5.617-1.97 1.256 0 2.362.18 3.32.54Z" fill="url(#h)"/><path d="M700.477 347.67c1.681.932 3.703 1.398 6.065 1.398 2.404 0 4.468-.519 6.192-1.557 1.723-1.059 3.032-2.584 3.925-4.575.894-1.991 1.341-4.384 1.341-7.18v-7.18c0-2.838-.436-5.263-1.309-7.275-.872-2.012-2.149-3.537-3.83-4.575-1.659-1.059-3.66-1.589-6-1.589-2.256 0-4.266.498-6.032 1.494-1.406.802-2.598 1.941-3.575 3.417v7.48c0-1.398.298-2.669.893-3.813a6.603 6.603 0 0 1 2.586-2.7c1.128-.657 2.457-.985 3.989-.985 2.469 0 4.373.752 5.714 2.256 1.34 1.482 2.01 3.59 2.01 6.322v7.148c0 2.669-.67 4.745-2.01 6.227-1.341 1.462-3.245 2.192-5.714 2.192-1.532 0-2.861-.339-3.989-1.016a6.757 6.757 0 0 1-2.586-2.764c-.595-1.165-.893-2.457-.893-3.876v7.838c.776 1.438 1.85 2.542 3.223 3.313Z" fill="url(#i)"/><g filter="url(#j)"><circle cx="272.5" cy="90.5" r="75.5" stroke="url(#k)" stroke-width="4" shape-rendering="crispEdges"/></g><g filter="url(#l)"><circle cx="1107.5" cy="326.5" r="75.5" stroke="url(#m)" stroke-width="4" shape-rendering="crispEdges"/></g><g filter="url(#n)"><circle cx="90.5" cy="326.5" r="75.5" stroke="url(#o)" stroke-width="4" shape-rendering="crispEdges"/></g><g filter="url(#p)"><circle cx="925.5" cy="561.5" r="75.5" stroke="url(#q)" stroke-width="4" shape-rendering="crispEdges"/></g><g filter="url(#r)"><circle cx="272.5" cy="561.5" r="75.5" stroke="url(#s)" stroke-width="4" shape-rendering="crispEdges"/></g><g filter="url(#t)"><circle cx="925.5" cy="90.5" r="75.5" stroke="url(#u)" stroke-width="4" shape-rendering="crispEdges"/></g><g filter="url(#v)"><circle cx="599" cy="326" r="220" stroke="url(#w)" stroke-width="3" shape-rendering="crispEdges"/></g><g filter="url(#x)"><circle cx="599" cy="326" r="203" stroke="url(#y)" stroke-width="22" shape-rendering="crispEdges"/></g><g filter="url(#z)"><circle cx="599" cy="326" r="179" stroke="url(#A)" stroke-width="5" shape-rendering="crispEdges"/></g><g filter="url(#B)"><path d="M863.909 517.936 777 455.25M420.176 197.877 333.5 135.359" stroke="#DBADFC" stroke-width="5"/></g><g filter="url(#C)"><path d="m864 134.998-86.5 62.391m-357 257.5L334 517.28" stroke="#DBADFC" stroke-width="5"/></g><g filter="url(#D)"><path d="M166 327h213m440 0h213" stroke="#DBADFC" stroke-width="5"/></g><defs><linearGradient id="a" x1="598.5" y1="291" x2="598.5" y2="362" gradientUnits="userSpaceOnUse"><stop stop-color="#DBADFC"/><stop offset="1" stop-color="#DBADFC" stop-opacity=".5"/></linearGradient><linearGradient id="b" x1="598.5" y1="291" x2="598.5" y2="362" gradientUnits="userSpaceOnUse"><stop stop-color="#DBADFC"/><stop offset="1" stop-color="#DBADFC" stop-opacity=".5"/></linearGradient><linearGradient id="c" x1="598.5" y1="291" x2="598.5" y2="362" gradientUnits="userSpaceOnUse"><stop stop-color="#DBADFC"/><stop offset="1" stop-color="#DBADFC" stop-opacity=".5"/></linearGradient><linearGradient id="d" x1="598.5" y1="291" x2="598.5" y2="362" gradientUnits="userSpaceOnUse"><stop stop-color="#DBADFC"/><stop offset="1" stop-color="#DBADFC" stop-opacity=".5"/></linearGradient><linearGradient id="e" x1="598.5" y1="291" x2="598.5" y2="362" gradientUnits="userSpaceOnUse"><stop stop-color="#DBADFC"/><stop offset="1" stop-color="#DBADFC" stop-opacity=".5"/></linearGradient><linearGradient id="f" x1="598.5" y1="291" x2="598.5" y2="362" gradientUnits="userSpaceOnUse"><stop stop-color="#DBADFC"/><stop offset="1" stop-color="#DBADFC" stop-opacity=".5"/></linearGradient><linearGradient id="g" x1="598.5" y1="291" x2="598.5" y2="362" gradientUnits="userSpaceOnUse"><stop stop-color="#DBADFC"/><stop offset="1" stop-color="#DBADFC" stop-opacity=".5"/></linearGradient><linearGradient id="h" x1="598.5" y1="291" x2="598.5" y2="362" gradientUnits="userSpaceOnUse"><stop stop-color="#DBADFC"/><stop offset="1" stop-color="#DBADFC" stop-opacity=".5"/></linearGradient><linearGradient id="i" x1="598.5" y1="291" x2="598.5" y2="362" gradientUnits="userSpaceOnUse"><stop stop-color="#DBADFC"/><stop offset="1" stop-color="#DBADFC" stop-opacity=".5"/></linearGradient><linearGradient id="k" x1="272.5" y1="15" x2="272.5" y2="166" gradientUnits="userSpaceOnUse"><stop stop-color="#DBADFC"/><stop offset="1" stop-color="#DBADFC" stop-opacity=".25"/></linearGradient><linearGradient id="m" x1="1107.5" y1="251" x2="1107.5" y2="402" gradientUnits="userSpaceOnUse"><stop stop-color="#DBADFC"/><stop offset="1" stop-color="#DBADFC" stop-opacity=".25"/></linearGradient><linearGradient id="o" x1="90.5" y1="251" x2="90.5" y2="402" gradientUnits="userSpaceOnUse"><stop stop-color="#DBADFC"/><stop offset="1" stop-color="#DBADFC" stop-opacity=".25"/></linearGradient><linearGradient id="q" x1="925.5" y1="486" x2="925.5" y2="637" gradientUnits="userSpaceOnUse"><stop stop-color="#DBADFC"/><stop offset="1" stop-color="#DBADFC" stop-opacity=".25"/></linearGradient><linearGradient id="s" x1="272.5" y1="486" x2="272.5" y2="637" gradientUnits="userSpaceOnUse"><stop stop-color="#DBADFC"/><stop offset="1" stop-color="#DBADFC" stop-opacity=".25"/></linearGradient><linearGradient id="u" x1="925.5" y1="15" x2="925.5" y2="166" gradientUnits="userSpaceOnUse"><stop stop-color="#DBADFC"/><stop offset="1" stop-color="#DBADFC" stop-opacity=".25"/></linearGradient><linearGradient id="w" x1="599" y1="106" x2="599" y2="546" gradientUnits="userSpaceOnUse"><stop stop-color="#DBADFC"/><stop offset="1" stop-color="#DBADFC" stop-opacity=".25"/></linearGradient><linearGradient id="y" x1="599" y1="123" x2="599" y2="529" gradientUnits="userSpaceOnUse"><stop stop-color="#DBADFC"/><stop offset="1" stop-color="#DBADFC" stop-opacity=".25"/></linearGradient><linearGradient id="A" x1="599" y1="147" x2="599" y2="505" gradientUnits="userSpaceOnUse"><stop stop-color="#DBADFC"/><stop offset="1" stop-color="#DBADFC" stop-opacity=".25"/></linearGradient><filter id="j" x="182" y="0" width="181" height="181" filterUnits="userSpaceOnUse" color-interpolation-filters="sRGB"><feFlood flood-opacity="0" result="BackgroundImageFix"/><feColorMatrix in="SourceAlpha" values="0 0 0 0 0 0 0 0 0 0 0 0 0 0 0 0 0 0 127 0" result="hardAlpha"/><feOffset/><feGaussianBlur stdDeviation="6.5"/><feComposite in2="hardAlpha" operator="out"/><feColorMatrix values="0 0 0 0 0.858824 0 0 0 0 0.678431 0 0 0 0 0.988235 0 0 0 0.5 0"/><feBlend in2="BackgroundImageFix" result="effect1_dropShadow_151_576"/><feBlend in="SourceGraphic" in2="effect1_dropShadow_151_576" result="shape"/></filter><filter id="l" x="1017" y="236" width="181" height="181" filterUnits="userSpaceOnUse" color-interpolation-filters="sRGB"><feFlood flood-opacity="0" result="BackgroundImageFix"/><feColorMatrix in="SourceAlpha" values="0 0 0 0 0 0 0 0 0 0 0 0 0 0 0 0 0 0 127 0" result="hardAlpha"/><feOffset/><feGaussianBlur stdDeviation="6.5"/><feComposite in2="hardAlpha" operator="out"/><feColorMatrix values="0 0 0 0 0.858824 0 0 0 0 0.678431 0 0 0 0 0.988235 0 0 0 0.5 0"/><feBlend in2="BackgroundImageFix" result="effect1_dropShadow_151_576"/><feBlend in="SourceGraphic" in2="effect1_dropShadow_151_576" result="shape"/></filter><filter id="n" x="0" y="236" width="181" height="181" filterUnits="userSpaceOnUse" color-interpolation-filters="sRGB"><feFlood flood-opacity="0" result="BackgroundImageFix"/><feColorMatrix in="SourceAlpha" values="0 0 0 0 0 0 0 0 0 0 0 0 0 0 0 0 0 0 127 0" result="hardAlpha"/><feOffset/><feGaussianBlur stdDeviation="6.5"/><feComposite in2="hardAlpha" operator="out"/><feColorMatrix values="0 0 0 0 0.858824 0 0 0 0 0.678431 0 0 0 0 0.988235 0 0 0 0.5 0"/><feBlend in2="BackgroundImageFix" result="effect1_dropShadow_151_576"/><feBlend in="SourceGraphic" in2="effect1_dropShadow_151_576" result="shape"/></filter><filter id="p" x="835" y="471" width="181" height="181" filterUnits="userSpaceOnUse" color-interpolation-filters="sRGB"><feFlood flood-opacity="0" result="BackgroundImageFix"/><feColorMatrix in="SourceAlpha" values="0 0 0 0 0 0 0 0 0 0 0 0 0 0 0 0 0 0 127 0" result="hardAlpha"/><feOffset/><feGaussianBlur stdDeviation="6.5"/><feComposite in2="hardAlpha" operator="out"/><feColorMatrix values="0 0 0 0 0.858824 0 0 0 0 0.678431 0 0 0 0 0.988235 0 0 0 0.5 0"/><feBlend in2="BackgroundImageFix" result="effect1_dropShadow_151_576"/><feBlend in="SourceGraphic" in2="effect1_dropShadow_151_576" result="shape"/></filter><filter id="r" x="182" y="471" width="181" height="181" filterUnits="userSpaceOnUse" color-interpolation-filters="sRGB"><feFlood flood-opacity="0" result="BackgroundImageFix"/><feColorMatrix in="SourceAlpha" values="0 0 0 0 0 0 0 0 0 0 0 0 0 0 0 0 0 0 127 0" result="hardAlpha"/><feOffset/><feGaussianBlur stdDeviation="6.5"/><feComposite in2="hardAlpha" operator="out"/><feColorMatrix values="0 0 0 0 0.858824 0 0 0 0 0.678431 0 0 0 0 0.988235 0 0 0 0.5 0"/><feBlend in2="BackgroundImageFix" result="effect1_dropShadow_151_576"/><feBlend in="SourceGraphic" in2="effect1_dropShadow_151_576" result="shape"/></filter><filter id="t" x="835" y="0" width="181" height="181" filterUnits="userSpaceOnUse" color-interpolation-filters="sRGB"><feFlood flood-opacity="0" result="BackgroundImageFix"/><feColorMatrix in="SourceAlpha" values="0 0 0 0 0 0 0 0 0 0 0 0 0 0 0 0 0 0 127 0" result="hardAlpha"/><feOffset/><feGaussianBlur stdDeviation="6.5"/><feComposite in2="hardAlpha" operator="out"/><feColorMatrix values="0 0 0 0 0.858824 0 0 0 0 0.678431 0 0 0 0 0.988235 0 0 0 0.5 0"/><feBlend in2="BackgroundImageFix" result="effect1_dropShadow_151_576"/><feBlend in="SourceGraphic" in2="effect1_dropShadow_151_576" result="shape"/></filter><filter id="v" x="364.5" y="91.5" width="469" height="469" filterUnits="userSpaceOnUse" color-interpolation-filters="sRGB"><feFlood flood-opacity="0" result="BackgroundImageFix"/><feColorMatrix in="SourceAlpha" values="0 0 0 0 0 0 0 0 0 0 0 0 0 0 0 0 0 0 127 0" result="hardAlpha"/><feOffset/><feGaussianBlur stdDeviation="6.5"/><feComposite in2="hardAlpha" operator="out"/><feColorMatrix values="0 0 0 0 0.858824 0 0 0 0 0.678431 0 0 0 0 0.988235 0 0 0 0.5 0"/><feBlend in2="BackgroundImageFix" result="effect1_dropShadow_151_576"/><feBlend in="SourceGraphic" in2="effect1_dropShadow_151_576" result="shape"/></filter><filter id="x" x="372" y="99" width="454" height="454" filterUnits="userSpaceOnUse" color-interpolation-filters="sRGB"><feFlood flood-opacity="0" result="BackgroundImageFix"/><feColorMatrix in="SourceAlpha" values="0 0 0 0 0 0 0 0 0 0 0 0 0 0 0 0 0 0 127 0" result="hardAlpha"/><feOffset/><feGaussianBlur stdDeviation="6.5"/><feComposite in2="hardAlpha" operator="out"/><feColorMatrix values="0 0 0 0 0.858824 0 0 0 0 0.678431 0 0 0 0 0.988235 0 0 0 0.5 0"/><feBlend in2="BackgroundImageFix" result="effect1_dropShadow_151_576"/><feBlend in="SourceGraphic" in2="effect1_dropShadow_151_576" result="shape"/></filter><filter id="z" x="404.5" y="131.5" width="389" height="389" filterUnits="userSpaceOnUse" color-interpolation-filters="sRGB"><feFlood flood-opacity="0" result="BackgroundImageFix"/><feColorMatrix in="SourceAlpha" values="0 0 0 0 0 0 0 0 0 0 0 0 0 0 0 0 0 0 127 0" result="hardAlpha"/><feOffset/><feGaussianBlur stdDeviation="6.5"/><feComposite in2="hardAlpha" operator="out"/><feColorMatrix values="0 0 0 0 0.858824 0 0 0 0 0.678431 0 0 0 0 0.988235 0 0 0 0.5 0"/><feBlend in2="BackgroundImageFix" result="effect1_dropShadow_151_576"/><feBlend in="SourceGraphic" in2="effect1_dropShadow_151_576" result="shape"/></filter><filter id="B" x="319.037" y="120.332" width="559.334" height="412.632" filterUnits="userSpaceOnUse" color-interpolation-filters="sRGB"><feFlood flood-opacity="0" result="BackgroundImageFix"/><feColorMatrix in="SourceAlpha" values="0 0 0 0 0 0 0 0 0 0 0 0 0 0 0 0 0 0 127 0" result="hardAlpha"/><feOffset/><feGaussianBlur stdDeviation="6.5"/><feComposite in2="hardAlpha" operator="out"/><feColorMatrix values="0 0 0 0 0.858824 0 0 0 0 0.678431 0 0 0 0 0.988235 0 0 0 0.5 0"/><feBlend in2="BackgroundImageFix" result="effect1_dropShadow_151_576"/><feBlend in="SourceGraphic" in2="effect1_dropShadow_151_576" result="shape"/></filter><filter id="C" x="319.537" y="119.97" width="558.926" height="412.337" filterUnits="userSpaceOnUse" color-interpolation-filters="sRGB"><feFlood flood-opacity="0" result="BackgroundImageFix"/><feColorMatrix in="SourceAlpha" values="0 0 0 0 0 0 0 0 0 0 0 0 0 0 0 0 0 0 127 0" result="hardAlpha"/><feOffset/><feGaussianBlur stdDeviation="6.5"/><feComposite in2="hardAlpha" operator="out"/><feColorMatrix values="0 0 0 0 0.858824 0 0 0 0 0.678431 0 0 0 0 0.988235 0 0 0 0.5 0"/><feBlend in2="BackgroundImageFix" result="effect1_dropShadow_151_576"/><feBlend in="SourceGraphic" in2="effect1_dropShadow_151_576" result="shape"/></filter><filter id="D" x="153" y="311.5" width="892" height="31" filterUnits="userSpaceOnUse" color-interpolation-filters="sRGB"><feFlood flood-opacity="0" result="BackgroundImageFix"/><feColorMatrix in="SourceAlpha" values="0 0 0 0 0 0 0 0 0 0 0 0 0 0 0 0 0 0 127 0" result="hardAlpha"/><feOffset/><feGaussianBlur stdDeviation="6.5"/><feComposite in2="hardAlpha" operator="out"/><feColorMatrix values="0 0 0 0 0.858824 0 0 0 0 0.678431 0 0 0 0 0.988235 0 0 0 0.5 0"/><feBlend in2="BackgroundImageFix" result="effect1_dropShadow_151_576"/><feBlend in="SourceGraphic" in2="effect1_dropShadow_151_576" result="shape"/></filter></defs></svg>